<?xml version="1.0" standalone="no"?>
<!DOCTYPE svg PUBLIC "-//W3C//DTD SVG 20010904//EN"
 "http://www.w3.org/TR/2001/REC-SVG-20010904/DTD/svg10.dtd">
<svg version="1.0" xmlns="http://www.w3.org/2000/svg"
 width="635.000000pt" height="635.000000pt" viewBox="0 0 635.000000 635.000000"
 preserveAspectRatio="xMidYMid meet">
<metadata>
Created by potrace 1.11, written by Peter Selinger 2001-2013
</metadata>
<g transform="translate(0.000000,635.000000) scale(0.100000,-0.100000)"
fill="#000000" stroke="none">
<path d="M0 3175 l0 -3175 3175 0 3175 0 0 3175 0 3175 -3175 0 -3175 0 0
-3175z m3190 2881 l0 -273 -61 -7 c-34 -3 -86 -6 -115 -6 -77 0 -272 -27 -404
-56 -362 -80 -761 -270 -1055 -504 -109 -87 -281 -256 -377 -370 -252 -299
-458 -718 -542 -1100 -30 -135 -56 -327 -56 -409 0 -32 -3 -79 -6 -105 l-7
-46 -273 0 -274 0 0 1575 0 1575 1585 0 1585 0 0 -274z m3140 -1301 l0 -1575
-275 0 -275 0 0 58 c0 161 -45 462 -95 637 -225 789 -797 1421 -1561 1723
-242 97 -593 172 -802 172 -37 0 -77 3 -89 6 l-23 6 0 274 0 274 1560 0 1560
0 0 -1575z m-3145 255 l0 -185 -70 -6 c-384 -35 -721 -335 -810 -722 -29 -129
-29 -256 1 -428 6 -35 5 -35 -37 -48 -79 -23 -178 -69 -252 -117 -85 -55 -230
-199 -272 -272 l-30 -52 -277 0 c-180 0 -279 4 -283 10 -10 16 13 250 36 370
119 618 545 1165 1120 1440 246 117 604 202 824 196 l50 -1 0 -185z m315 158
c555 -89 1045 -407 1366 -884 82 -123 182 -325 227 -464 63 -189 107 -431 107
-585 l0 -55 -229 0 -229 0 -48 67 c-119 167 -297 294 -494 353 -41 13 -76 24
-77 25 -2 1 4 35 13 76 20 96 14 345 -11 434 -54 194 -186 387 -344 505 -126
92 -348 179 -461 180 -19 0 -52 3 -72 6 l-38 7 0 184 0 183 83 -6 c45 -3 138
-15 207 -26z m-310 -1413 l0 -575 -292 1 -293 0 138 38 c75 21 138 40 140 42
2 2 11 52 20 111 l18 107 -35 46 c-74 97 -126 344 -97 462 27 106 91 200 178
260 51 35 168 82 206 83 16 0 17 -34 17 -575z m135 560 c32 -9 80 -27 107 -42
58 -31 147 -123 177 -181 27 -52 51 -145 51 -194 0 -54 -42 -179 -98 -290
l-48 -96 21 -74 c12 -40 32 -97 45 -126 l23 -52 81 -25 c44 -13 117 -31 161
-39 77 -14 65 -14 -277 -15 l-358 -1 0 575 0 575 28 0 c15 0 54 -7 87 -15z
m-2751 -1192 c3 -21 6 -66 6 -100 0 -77 25 -268 50 -390 100 -479 350 -941
700 -1293 137 -137 241 -222 410 -335 119 -79 317 -191 324 -184 7 7 206 525
206 534 0 6 -28 25 -63 44 -177 97 -337 221 -493 383 -331 346 -525 789 -559
1286 l-7 92 277 0 c218 0 276 -3 272 -12 -89 -206 -101 -268 -94 -467 6 -175
19 -229 92 -376 65 -130 145 -231 252 -316 84 -67 246 -150 339 -173 161 -41
356 -38 514 8 l80 23 0 -627 c0 -542 2 -629 15 -633 8 -4 77 -9 155 -13 l140
-7 0 -278 0 -279 -1585 0 -1585 0 0 1575 0 1575 274 0 273 0 7 -37z m2616
-288 l0 -325 -139 0 c-127 0 -140 -2 -146 -18 -11 -36 -118 -132 -180 -163
-171 -84 -357 -55 -496 77 -177 170 -184 435 -14 613 59 62 130 106 204 127
33 9 149 12 409 13 l362 1 0 -325z m919 305 c21 -10 63 -42 94 -70 253 -231
208 -623 -87 -761 -72 -34 -165 -53 -213 -44 l-33 6 0 -251 0 -250 83 0 c413
1 788 302 888 716 17 68 22 120 22 219 0 152 -22 262 -77 381 l-35 74 225 0
224 0 0 -59 c0 -93 -28 -285 -60 -412 -158 -634 -617 -1157 -1226 -1400 -132
-52 -391 -119 -460 -119 l-24 0 0 670 0 670 -110 0 -110 0 0 325 0 325 430 0
c408 0 433 -1 469 -20z m2221 -1550 l0 -1570 -1560 0 -1560 0 0 274 0 273 118
7 c249 16 521 71 741 152 53 19 168 70 256 114 422 207 757 501 1017 890 97
145 225 396 282 551 82 224 138 501 152 754 l7 125 273 0 274 0 0 -1570z"/>
</g>
</svg>
